<svg width="960" height="640" viewBox="0 0 960 640" fill="none" xmlns="http://www.w3.org/2000/svg">
  <rect width="960" height="640" rx="28" fill="#070B13"/>
  <rect x="48" y="48" width="864" height="544" rx="22" fill="#0E1624" stroke="#1F3B57"/>
  <rect x="86" y="88" width="310" height="54" rx="12" fill="#13243A"/>
  <rect x="112" y="107" width="166" height="16" rx="8" fill="#38BDF8"/>
  <rect x="86" y="174" width="254" height="332" rx="16" fill="#0A111D" stroke="#25435F"/>
  <rect x="112" y="205" width="126" height="14" rx="7" fill="#E5E7EB"/>
  <rect x="112" y="246" width="190" height="12" rx="6" fill="#46637F"/>
  <rect x="112" y="284" width="154" height="12" rx="6" fill="#46637F"/>
  <rect x="112" y="322" width="178" height="12" rx="6" fill="#46637F"/>
  <rect x="112" y="382" width="86" height="34" rx="17" fill="#0EA5E9" fill-opacity=".18" stroke="#38BDF8"/>
  <rect x="214" y="382" width="76" height="34" rx="17" fill="#22C55E" fill-opacity=".14" stroke="#22C55E"/>
  <path d="M386 332H508" stroke="#38BDF8" stroke-width="8" stroke-linecap="round"/>
  <path d="M478 300L510 332L478 364" stroke="#38BDF8" stroke-width="8" stroke-linecap="round" stroke-linejoin="round"/>
  <rect x="558" y="174" width="316" height="332" rx="16" fill="#0A111D" stroke="#25435F"/>
  <rect x="588" y="205" width="152" height="14" rx="7" fill="#E5E7EB"/>
  <rect x="588" y="250" width="246" height="44" rx="10" fill="#13243A"/>
  <rect x="608" y="266" width="92" height="12" rx="6" fill="#38BDF8"/>
  <rect x="720" y="266" width="84" height="12" rx="6" fill="#22C55E"/>
  <rect x="588" y="316" width="246" height="44" rx="10" fill="#13243A"/>
  <rect x="608" y="332" width="76" height="12" rx="6" fill="#38BDF8"/>
  <rect x="720" y="332" width="94" height="12" rx="6" fill="#F59E0B"/>
  <rect x="588" y="382" width="246" height="44" rx="10" fill="#13243A"/>
  <rect x="608" y="398" width="112" height="12" rx="6" fill="#38BDF8"/>
  <rect x="744" y="398" width="62" height="12" rx="6" fill="#22C55E"/>
  <rect x="588" y="458" width="114" height="26" rx="13" fill="#22C55E" fill-opacity=".14"/>
  <text x="86" y="560" fill="#93C5FD" font-family="Arial, sans-serif" font-size="26" font-weight="700">CSV to API Automation</text>
</svg>
